STARTFONT 2.1
FONT -sun-timmons-bold-r-normal--20-200-75-75-p-115-adobe-fontspecific
SIZE 20 75 75
FONTBOUNDINGBOX 23 24 -4 -4

STARTPROPERTIES 28
FOUNDRY "sun"
FAMILY_NAME "timmons"
WEIGHT_NAME "bold"
SLANT "r"
SETWIDTH_NAME "normal"
ADD_STYLE_NAME ""
PIXEL_SIZE 21
POINT_SIZE 200
RESOLUTION_X 75
RESOLUTION_Y 75
SPACING "p"
AVERAGE_WIDTH 115
CHARSET_REGISTRY "adobe"
CHARSET_ENCODING "fontspecific"
COPYRIGHT "© 1999 Sun Microsystems, Inc."
RAW_PIXELSIZE 1000
RAW_POINTSIZE 964
RAW_ASCENT 950
RAW_DESCENT 196
RAW_AVERAGE_WIDTH 5542
FACE_NAME "TimmonsBoldmonsB5"
_XMBDFED_INFO "Edited with xmbdfed 2.4."
WEIGHT 10
X_HEIGHT -2
QUAD_WIDTH 11
DEFAULT_CHAR 4
FONT_DESCENT 4
FONT_ASCENT 20
ENDPROPERTIES

CHARS 214

STARTCHAR char32
ENCODING 32
SWIDTH 25 0
DWIDTH 6 0
BBX 0 0 0 0
BITMAP
ENDCHAR

STARTCHAR char33
ENCODING 33
SWIDTH 25 0
DWIDTH 6 0
BBX 3 15 2 0
BITMAP
40
E0
E0
E0
E0
40
40
40
40
40
00
00
E0
E0
E0
ENDCHAR

STARTCHAR char34
ENCODING 34
SWIDTH 43 0
DWIDTH 10 0
BBX 7 7 1 8
BITMAP
4C
EE
E6
22
22
44
88
ENDCHAR

STARTCHAR char35
ENCODING 35
SWIDTH 3 0
DWIDTH 11 0
BBX 10 15 0 0
BITMAP
0880
0880
1980
1980
7FC0
1100
1100
1100
1100
FFC0
7FC0
3300
2200
2200
2200
ENDCHAR

STARTCHAR char36
ENCODING 36
SWIDTH 12 0
DWIDTH 13 0
BBX 11 20 1 -3
BITMAP
0C00
0C00
3F80
65C0
E4C0
EC40
EC40
FC00
7F00
3FC0
1FC0
0FE0
CDE0
CCE0
CCE0
EDC0
7F80
0C00
0C00
0C00
ENDCHAR

STARTCHAR char37
ENCODING 37
SWIDTH 25 0
DWIDTH 16 0
BBX 15 15 0 0
BITMAP
70E0
58C0
DCC0
DDC0
DD80
DF98
DF6C
DF6E
5F6E
366E
066E
0E66
0C66
1C6C
183C
ENDCHAR

STARTCHAR char38
ENCODING 38
SWIDTH 25 0
DWIDTH 16 0
BBX 14 15 0 0
BITMAP
07C0
0CE0
1CE0
1CE0
1CC0
1D80
0E3C
1F10
7710
63A0
E3E0
F1E0
F0F4
7FF8
3E30
ENDCHAR

STARTCHAR char39
ENCODING 39
SWIDTH 21 0
DWIDTH 5 0
BBX 4 7 1 8
BITMAP
30
40
C0
C0
F0
F0
70
ENDCHAR

STARTCHAR char40
ENCODING 40
SWIDTH 34 0
DWIDTH 8 0
BBX 6 18 1 -3
BITMAP
04
18
30
20
60
60
E0
E0
E0
E0
E0
E0
60
60
30
30
18
04
ENDCHAR

STARTCHAR char41
ENCODING 41
SWIDTH 34 0
DWIDTH 8 0
BBX 6 18 0 -3
BITMAP
40
60
30
18
18
18
1C
1C
1C
1C
1C
1C
18
18
10
30
60
80
ENDCHAR

STARTCHAR char42
ENCODING 42
SWIDTH 43 0
DWIDTH 10 0
BBX 8 8 1 7
BITMAP
38
38
F3
EF
38
6C
6E
24
ENDCHAR

STARTCHAR char43
ENCODING 43
SWIDTH 16 0
DWIDTH 14 0
BBX 13 12 0 0
BITMAP
0300
0300
0300
0300
0300
FFF8
FFF8
0300
0300
0300
0300
0300
ENDCHAR

STARTCHAR char44
ENCODING 44
SWIDTH 21 0
DWIDTH 5 0
BBX 4 7 1 -4
BITMAP
E0
F0
F0
10
20
40
40
ENDCHAR

STARTCHAR char45
ENCODING 45
SWIDTH 38 0
DWIDTH 9 0
BBX 7 2 0 5
BITMAP
FE
FE
ENDCHAR

STARTCHAR char46
ENCODING 46
SWIDTH 21 0
DWIDTH 5 0
BBX 3 3 1 0
BITMAP
40
E0
E0
ENDCHAR

STARTCHAR char47
ENCODING 47
SWIDTH 38 0
DWIDTH 9 0
BBX 8 15 0 0
BITMAP
03
06
06
06
0C
0C
0C
18
18
30
30
30
60
60
C0
ENDCHAR

STARTCHAR char48
ENCODING 48
SWIDTH 43 0
DWIDTH 10 0
BBX 9 15 0 0
BITMAP
1C00
3600
6300
6300
E380
E380
E380
E380
E380
E380
E380
6300
6300
3600
1C00
ENDCHAR

STARTCHAR char49
ENCODING 49
SWIDTH 43 0
DWIDTH 10 0
BBX 7 15 1 0
BITMAP
08
38
F8
38
38
38
38
38
38
38
38
38
38
38
7E
ENDCHAR

STARTCHAR char50
ENCODING 50
SWIDTH 43 0
DWIDTH 10 0
BBX 9 15 0 0
BITMAP
3C00
7E00
4F00
8700
0700
0700
0600
0C00
0C00
0800
1000
2080
7F80
FF80
FF00
ENDCHAR

STARTCHAR char51
ENCODING 51
SWIDTH 43 0
DWIDTH 10 0
BBX 9 15 0 0
BITMAP
1E00
7F00
C700
8700
0700
0600
0E00
3F00
0780
0380
0380
0380
C300
E200
7C00
ENDCHAR

STARTCHAR char52
ENCODING 52
SWIDTH 43 0
DWIDTH 10 0
BBX 9 15 0 0
BITMAP
0100
0300
0700
0F00
0F00
1700
2700
2700
4700
8700
FF80
FF80
0700
0700
0700
ENDCHAR

STARTCHAR char53
ENCODING 53
SWIDTH 43 0
DWIDTH 10 0
BBX 9 15 0 0
BITMAP
3F80
3F80
3F80
2000
4000
7C00
7F00
FF00
0780
0380
0180
0180
C100
F200
7C00
ENDCHAR

STARTCHAR char54
ENCODING 54
SWIDTH 43 0
DWIDTH 10 0
BBX 9 15 0 0
BITMAP
0180
0E00
1800
3800
7000
7000
FF00
E700
E380
E380
E380
E380
6380
7300
1E00
ENDCHAR

STARTCHAR char55
ENCODING 55
SWIDTH 43 0
DWIDTH 10 0
BBX 9 15 0 0
BITMAP
7F80
7F80
FF80
8100
0300
0300
0200
0600
0600
0400
0C00
0C00
0C00
0800
1800
ENDCHAR

STARTCHAR char56
ENCODING 56
SWIDTH 43 0
DWIDTH 10 0
BBX 9 15 0 0
BITMAP
3E00
6300
E380
E380
F380
FB00
7E00
3F00
6F80
E780
C380
E380
E380
6380
3E00
ENDCHAR

STARTCHAR char57
ENCODING 57
SWIDTH 43 0
DWIDTH 10 0
BBX 9 15 0 0
BITMAP
1C00
7600
6300
E380
E380
E380
E380
7380
7F80
0300
0700
0600
0E00
1C00
E000
ENDCHAR

STARTCHAR char58
ENCODING 58
SWIDTH 25 0
DWIDTH 6 0
BBX 3 10 2 0
BITMAP
E0
E0
E0
00
00
00
00
E0
E0
C0
ENDCHAR

STARTCHAR char59
ENCODING 59
SWIDTH 25 0
DWIDTH 6 0
BBX 3 14 2 -4
BITMAP
E0
E0
E0
00
00
00
00
E0
E0
E0
20
20
C0
80
ENDCHAR

STARTCHAR char60
ENCODING 60
SWIDTH 8 0
DWIDTH 12 0
BBX 11 11 0 0
BITMAP
0020
00E0
0380
0E00
3800
E000
7000
1C00
0700
01C0
0020
ENDCHAR

STARTCHAR char61
ENCODING 61
SWIDTH 16 0
DWIDTH 14 0
BBX 15 6 -1 3
BITMAP
FFFE
FFFE
0000
0000
FFFE
FFFE
ENDCHAR

STARTCHAR char62
ENCODING 62
SWIDTH 8 0
DWIDTH 12 0
BBX 10 11 1 0
BITMAP
8000
C000
7000
1E00
0380
00C0
01C0
0700
3800
E000
8000
ENDCHAR

STARTCHAR char63
ENCODING 63
SWIDTH 43 0
DWIDTH 10 0
BBX 8 15 1 0
BITMAP
3C
4E
E7
E7
47
0F
0E
08
18
18
00
00
38
38
38
ENDCHAR

STARTCHAR char64
ENCODING 64
SWIDTH 11 0
DWIDTH 23 0
BBX 15 15 3 0
BITMAP
07E0
1838
300C
6394
6676
CC66
D826
D826
D866
D844
4CC8
6770
3004
1818
07E0
ENDCHAR

STARTCHAR char65
ENCODING 65
SWIDTH 16 0
DWIDTH 14 0
BBX 14 15 -1 0
BITMAP
0100
0300
0380
0780
0780
07C0
09C0
09E0
10E0
1FF0
3070
2070
2078
6078
F0FC
ENDCHAR

STARTCHAR char66
ENCODING 66
SWIDTH 16 0
DWIDTH 14 0
BBX 12 15 0 0
BITMAP
FFC0
38E0
3870
3870
3870
38E0
39E0
3F80
38E0
3870
3870
3870
3870
38F0
FFC0
ENDCHAR

STARTCHAR char67
ENCODING 67
SWIDTH 16 0
DWIDTH 14 0
BBX 12 15 1 0
BITMAP
0F90
1870
3030
7010
6010
E000
E000
E000
E000
E000
E000
7010
7030
3860
0F80
ENDCHAR

STARTCHAR char68
ENCODING 68
SWIDTH 25 0
DWIDTH 16 0
BBX 14 15 0 0
BITMAP
FF80
78E0
3870
3838
3838
381C
381C
381C
381C
381C
381C
3838
3838
3870
FFC0
ENDCHAR

STARTCHAR char69
ENCODING 69
SWIDTH 16 0
DWIDTH 14 0
BBX 12 15 0 0
BITMAP
FFE0
3860
3820
3820
3880
3880
3900
3F00
3900
3880
3890
3810
3830
3870
FFF0
ENDCHAR

STARTCHAR char70
ENCODING 70
SWIDTH 8 0
DWIDTH 12 0
BBX 11 15 0 0
BITMAP
FFE0
3860
3820
3820
3880
3880
3900
3F00
3900
3880
3880
3800
3800
3800
FE00
ENDCHAR

STARTCHAR char71
ENCODING 71
SWIDTH 25 0
DWIDTH 16 0
BBX 13 15 1 0
BITMAP
0F90
1870
3030
7010
6010
E000
E000
E000
E1F8
E070
E070
6070
3070
1870
0FE0
ENDCHAR

STARTCHAR char72
ENCODING 72
SWIDTH 29 0
DWIDTH 17 0
BBX 15 15 0 0
BITMAP
FE7E
3838
3838
3838
3838
3838
3838
3FF8
3838
3838
3838
3838
3838
3838
FEFE
ENDCHAR

STARTCHAR char73
ENCODING 73
SWIDTH 34 0
DWIDTH 8 0
BBX 7 15 0 0
BITMAP
FE
38
38
38
38
38
38
38
38
38
38
38
38
38
FE
ENDCHAR

STARTCHAR char74
ENCODING 74
SWIDTH 3 0
DWIDTH 11 0
BBX 10 15 0 0
BITMAP
1FC0
0700
0700
0700
0700
0700
0700
0700
0700
0700
0700
E700
E700
C600
3C00
ENDCHAR

STARTCHAR char75
ENCODING 75
SWIDTH 16 0
DWIDTH 14 0
BBX 14 15 0 0
BITMAP
FCFC
3870
3840
3880
3900
3B00
3B80
3FC0
3BC0
39E0
39E0
38F0
38F0
3878
FCFC
ENDCHAR

STARTCHAR char76
ENCODING 76
SWIDTH 16 0
DWIDTH 14 0
BBX 12 15 0 0
BITMAP
FE00
7800
3800
3800
3800
3800
3800
3800
3800
3810
3810
3810
3830
3870
FFF0
ENDCHAR

STARTCHAR char77
ENCODING 77
SWIDTH 42 0
DWIDTH 20 0
BBX 18 15 0 0
BITMAP
F807C0
7C0F00
7C0F00
6E1700
6E1700
6E1700
672700
672700
632700
63C700
63C700
638700
618700
618700
F10FC0
ENDCHAR

STARTCHAR char78
ENCODING 78
SWIDTH 25 0
DWIDTH 16 0
BBX 14 15 0 0
BITMAP
F83C
7818
7C18
7E18
6E18
6718
6798
6398
61D8
60F8
60F8
6078
6038
6038
F018
ENDCHAR

STARTCHAR char79
ENCODING 79
SWIDTH 29 0
DWIDTH 17 0
BBX 14 15 1 0
BITMAP
0FC0
1860
3030
7038
601C
E01C
E01C
E01C
E01C
E01C
E038
6038
3030
3860
0FC0
ENDCHAR

STARTCHAR char80
ENCODING 80
SWIDTH 12 0
DWIDTH 13 0
BBX 12 15 0 0
BITMAP
FFC0
38E0
3870
3870
3870
3870
38E0
3FC0
3800
3800
3800
3800
3800
3800
FE00
ENDCHAR

STARTCHAR char81
ENCODING 81
SWIDTH 29 0
DWIDTH 17 0
BBX 14 19 1 -4
BITMAP
0FC0
18E0
3070
7038
6038
E01C
E01C
E01C
E01C
E01C
E01C
7038
3038
3870
0FC0
0780
03C0
01F0
0070
ENDCHAR

STARTCHAR char82
ENCODING 82
SWIDTH 16 0
DWIDTH 14 0
BBX 13 15 0 0
BITMAP
FFC0
39E0
38F0
3870
3870
38F0
38E0
3F80
3BC0
3BC0
39E0
38E0
38F0
3870
FC78
ENDCHAR

STARTCHAR char83
ENCODING 83
SWIDTH 12 0
DWIDTH 13 0
BBX 12 15 0 0
BITMAP
3F20
70E0
E060
E020
F000
FC00
7F80
3FE0
0FE0
01F0
40F0
4070
4070
70E0
4FC0
ENDCHAR

STARTCHAR char84
ENCODING 84
SWIDTH 12 0
DWIDTH 13 0
BBX 13 15 0 0
BITMAP
FFF8
CE78
8E18
8E18
0E18
0E00
0E00
0E00
0E00
0E00
0E00
0E00
0E00
0E00
3F80
ENDCHAR

STARTCHAR char85
ENCODING 85
SWIDTH 20 0
DWIDTH 15 0
BBX 14 15 0 0
BITMAP
FC1C
7818
7018
7018
7018
7018
7018
7018
7018
7018
7018
7018
3018
3C30
0FC0
ENDCHAR

STARTCHAR char86
ENCODING 86
SWIDTH 16 0
DWIDTH 14 0
BBX 13 15 0 0
BITMAP
FC78
7830
3820
3820
3820
1C40
1C40
1CC0
0E80
0F80
0F00
0700
0600
0600
0200
ENDCHAR

STARTCHAR char87
ENCODING 87
SWIDTH 42 0
DWIDTH 20 0
BBX 19 15 -1 0
BITMAP
FDFCE0
787840
787840
3C3840
3C3880
1C3C80
1E5C80
1E5D00
0ECD00
0F8F00
0F8E00
070E00
070600
020400
020400
ENDCHAR

STARTCHAR char88
ENCODING 88
SWIDTH 12 0
DWIDTH 13 0
BBX 12 15 0 0
BITMAP
FDF0
7840
3840
1C80
1D00
0E00
0E00
0F00
0F00
0F80
1380
13C0
21C0
21E0
F3F0
ENDCHAR

STARTCHAR char89
ENCODING 89
SWIDTH 16 0
DWIDTH 14 0
BBX 13 15 -1 0
BITMAP
FE38
7810
3C10
1C10
1E20
0F20
0F40
07C0
0780
0780
0380
0380
0380
0380
1FE0
ENDCHAR

STARTCHAR char90
ENCODING 90
SWIDTH 16 0
DWIDTH 14 0
BBX 14 15 -1 0
BITMAP
3FF8
30F0
20E0
21E0
21C0
03C0
0780
0780
0F00
0E00
1E04
3C04
3C08
7818
7FF8
ENDCHAR

STARTCHAR char91
ENCODING 91
SWIDTH 25 0
DWIDTH 6 0
BBX 4 18 1 -3
BITMAP
F0
E0
E0
E0
E0
E0
E0
E0
E0
E0
E0
E0
E0
E0
E0
E0
E0
F0
ENDCHAR

STARTCHAR char92
ENCODING 92
SWIDTH 25 0
DWIDTH 6 0
BBX 6 15 0 0
BITMAP
80
C0
40
40
60
20
20
30
10
10
18
18
08
0C
0C
ENDCHAR

STARTCHAR char93
ENCODING 93
SWIDTH 25 0
DWIDTH 6 0
BBX 4 18 1 -3
BITMAP
F0
70
70
70
70
70
70
70
70
70
70
70
70
70
70
70
70
F0
ENDCHAR

STARTCHAR char94
ENCODING 94
SWIDTH 0 0
DWIDTH 0 0
BBX 8 2 -4 16
BITMAP
7C
66
ENDCHAR

STARTCHAR char95
ENCODING 95
SWIDTH 8 0
DWIDTH 12 0
BBX 12 1 0 -3
BITMAP
FFF0
ENDCHAR

STARTCHAR char96
ENCODING 96
SWIDTH 0 0
DWIDTH 0 0
BBX 4 3 -3 11
BITMAP
E0
60
30
ENDCHAR

STARTCHAR char97
ENCODING 97
SWIDTH 43 0
DWIDTH 10 0
BBX 10 10 0 0
BITMAP
3E00
6700
E700
E700
0F00
3700
6700
E700
FF40
F380
ENDCHAR

STARTCHAR char98
ENCODING 98
SWIDTH 3 0
DWIDTH 11 0
BBX 9 15 0 0
BITMAP
F000
7000
7000
7000
7000
7F00
7300
7380
7380
7380
7380
7380
7300
7300
4E00
ENDCHAR

STARTCHAR char99
ENCODING 99
SWIDTH 38 0
DWIDTH 9 0
BBX 8 10 0 0
BITMAP
3E
77
63
E1
E0
E0
F0
F1
7B
3C
ENDCHAR

STARTCHAR char100
ENCODING 100
SWIDTH 3 0
DWIDTH 11 0
BBX 10 15 0 0
BITMAP
0780
0380
0380
0380
0380
3F80
7380
E380
E380
E380
E380
E380
E380
77C0
3B00
ENDCHAR

STARTCHAR char101
ENCODING 101
SWIDTH 43 0
DWIDTH 10 0
BBX 9 10 0 0
BITMAP
3E00
7300
6300
E380
FF80
E000
E000
F080
7B00
3C00
ENDCHAR

STARTCHAR char102
ENCODING 102
SWIDTH 25 0
DWIDTH 6 0
BBX 8 15 0 0
BITMAP
1E
37
76
70
70
FC
70
70
70
70
70
70
70
70
FC
ENDCHAR

STARTCHAR char103
ENCODING 103
SWIDTH 43 0
DWIDTH 10 0
BBX 9 13 0 -3
BITMAP
3F80
E600
E700
E700
E700
6600
3C00
4000
FF00
7F80
7F80
C180
7F00
ENDCHAR

STARTCHAR char104
ENCODING 104
SWIDTH 3 0
DWIDTH 11 0
BBX 10 15 0 0
BITMAP
F000
7000
7000
7000
7000
7700
7B80
7380
7380
7380
7380
7380
7380
7380
FBC0
ENDCHAR

STARTCHAR char105
ENCODING 105
SWIDTH 25 0
DWIDTH 6 0
BBX 5 15 0 0
BITMAP
30
70
20
00
00
F0
70
70
70
70
70
70
70
70
F8
ENDCHAR

STARTCHAR char106
ENCODING 106
SWIDTH 25 0
DWIDTH 6 0
BBX 6 18 -2 -3
BITMAP
0C
1C
08
00
00
3C
1C
1C
1C
1C
1C
1C
1C
1C
1C
5C
DC
F8
ENDCHAR

STARTCHAR char107
ENCODING 107
SWIDTH 3 0
DWIDTH 11 0
BBX 10 15 0 0
BITMAP
F000
7000
7000
7000
7000
7780
7200
7200
7400
7C00
7E00
7600
7700
7380
FFC0
ENDCHAR

STARTCHAR char108
ENCODING 108
SWIDTH 25 0
DWIDTH 6 0
BBX 5 15 0 0
BITMAP
F0
70
70
70
70
70
70
70
70
70
70
70
70
70
F8
ENDCHAR

STARTCHAR char109
ENCODING 109
SWIDTH 29 0
DWIDTH 17 0
BBX 15 10 0 0
BITMAP
F738
7BDC
739C
739C
739C
739C
739C
739C
739C
FFDE
ENDCHAR

STARTCHAR char110
ENCODING 110
SWIDTH 3 0
DWIDTH 11 0
BBX 10 10 0 0
BITMAP
F700
7B80
7380
7380
7380
7380
7380
7380
7380
FFC0
ENDCHAR

STARTCHAR char111
ENCODING 111
SWIDTH 43 0
DWIDTH 10 0
BBX 9 10 0 0
BITMAP
3E00
7300
E380
E380
E380
E380
E380
6300
7300
3E00
ENDCHAR

STARTCHAR char112
ENCODING 112
SWIDTH 3 0
DWIDTH 11 0
BBX 9 14 0 -4
BITMAP
7E00
7300
7380
7380
7380
7380
7380
7380
7B00
7600
7000
7000
F000
8C00
ENDCHAR

STARTCHAR char113
ENCODING 113
SWIDTH 3 0
DWIDTH 11 0
BBX 10 14 0 -4
BITMAP
3C80
7380
6380
E380
E380
E380
E380
E380
7780
3B80
0380
0380
0380
07C0
ENDCHAR

STARTCHAR char114
ENCODING 114
SWIDTH 34 0
DWIDTH 8 0
BBX 7 10 0 0
BITMAP
F6
7E
72
70
70
70
70
70
70
F8
ENDCHAR

STARTCHAR char115
ENCODING 115
SWIDTH 38 0
DWIDTH 9 0
BBX 7 10 0 0
BITMAP
7A
E6
E2
F8
7C
3E
1E
86
C6
BC
ENDCHAR

STARTCHAR char116
ENCODING 116
SWIDTH 25 0
DWIDTH 6 0
BBX 6 14 0 0
BITMAP
10
10
30
70
F8
70
70
70
70
70
70
70
74
38
ENDCHAR

STARTCHAR char117
ENCODING 117
SWIDTH 3 0
DWIDTH 11 0
BBX 10 10 0 0
BITMAP
F780
7380
7380
7380
7380
7380
7380
7380
7780
3BC0
ENDCHAR

STARTCHAR char118
ENCODING 118
SWIDTH 43 0
DWIDTH 10 0
BBX 9 10 0 0
BITMAP
FB80
7100
7100
3A00
3A00
1C00
1C00
1C00
0800
0800
ENDCHAR

STARTCHAR char119
ENCODING 119
SWIDTH 16 0
DWIDTH 14 0
BBX 13 10 0 0
BITMAP
F7B8
6310
7310
33A0
3FA0
3DC0
19C0
18C0
1880
0880
ENDCHAR

STARTCHAR char120
ENCODING 120
SWIDTH 43 0
DWIDTH 10 0
BBX 10 10 0 0
BITMAP
FB80
7200
3A00
3C00
1C00
1C00
1E00
2600
2700
EFC0
ENDCHAR

STARTCHAR char121
ENCODING 121
SWIDTH 43 0
DWIDTH 10 0
BBX 9 13 0 -3
BITMAP
FB80
7100
7100
3900
3A00
1E00
1C00
1C00
0800
0800
6800
F000
6000
ENDCHAR

STARTCHAR char122
ENCODING 122
SWIDTH 38 0
DWIDTH 9 0
BBX 9 10 -1 0
BITMAP
FF80
C700
C700
0E00
1E00
1C00
3800
3880
7180
7F00
ENDCHAR

STARTCHAR char123
ENCODING 123
SWIDTH 30 0
DWIDTH 7 0
BBX 5 19 1 -4
BITMAP
38
70
60
60
20
20
20
60
40
80
60
60
60
60
60
60
60
70
38
ENDCHAR

STARTCHAR char124
ENCODING 124
SWIDTH 25 0
DWIDTH 6 0
BBX 2 15 2 0
BITMAP
C0
C0
C0
C0
C0
C0
C0
C0
C0
C0
C0
C0
C0
C0
C0
ENDCHAR

STARTCHAR char125
ENCODING 125
SWIDTH 30 0
DWIDTH 7 0
BBX 5 19 1 -4
BITMAP
C0
20
20
20
20
20
20
30
30
08
30
30
20
20
20
20
20
60
C0
ENDCHAR

STARTCHAR char126
ENCODING 126
SWIDTH 0 0
DWIDTH 0 0
BBX 8 3 -4 16
BITMAP
39
7E
8C
ENDCHAR

STARTCHAR char128
ENCODING 128
SWIDTH 43 0
DWIDTH 10 0
BBX 11 14 0 0
BITMAP
0FC0
18E0
3860
3060
7000
7000
FF80
FF00
7000
7000
3000
3840
18C0
0F00
ENDCHAR

STARTCHAR char130
ENCODING 130
SWIDTH 21 0
DWIDTH 5 0
BBX 4 6 0 -3
BITMAP
E0
F0
F0
10
20
40
ENDCHAR

STARTCHAR char131
ENCODING 131
SWIDTH 0 0
DWIDTH 0 0
BBX 8 2 -4 16
BITMAP
7C
66
ENDCHAR

STARTCHAR char132
ENCODING 132
SWIDTH 43 0
DWIDTH 10 0
BBX 7 6 1 -3
BITMAP
CC
EE
EE
22
44
44
ENDCHAR

STARTCHAR char133
ENCODING 133
SWIDTH 7 0
DWIDTH 22 0
BBX 16 2 2 0
BITMAP
E387
E387
ENDCHAR

STARTCHAR char134
ENCODING 134
SWIDTH 43 0
DWIDTH 10 0
BBX 9 19 0 -4
BITMAP
1C00
1C00
1C00
0800
FB80
E700
0C00
1C00
1C00
0C00
0C00
0C00
0C00
0C00
0C00
0C00
0C00
0C00
0C00
ENDCHAR

STARTCHAR char135
ENCODING 135
SWIDTH 3 0
DWIDTH 21 0
BBX 0 0 0 0
BITMAP
ENDCHAR

STARTCHAR char136
ENCODING 136
SWIDTH 0 0
DWIDTH 0 0
BBX 6 3 -3 11
BITMAP
78
78
8C
ENDCHAR

STARTCHAR char137
ENCODING 137
SWIDTH 3 0
DWIDTH 21 0
BBX 0 0 0 0
BITMAP
ENDCHAR

STARTCHAR char138
ENCODING 138
SWIDTH 3 0
DWIDTH 21 0
BBX 0 0 0 0
BITMAP
ENDCHAR

STARTCHAR char139
ENCODING 139
SWIDTH 30 0
DWIDTH 7 0
BBX 3 7 2 2
BITMAP
20
60
C0
80
E0
60
20
ENDCHAR

STARTCHAR char140
ENCODING 140
SWIDTH 3 0
DWIDTH 21 0
BBX 19 15 0 0
BITMAP
07FFE0
18F8E0
387860
703860
F03980
E03980
E03B80
E03F80
E03B80
E03980
6039A0
703820
307820
18F860
0FFFE0
ENDCHAR

STARTCHAR char141
ENCODING 141
SWIDTH 3 0
DWIDTH 21 0
BBX 0 0 0 0
BITMAP
ENDCHAR

STARTCHAR char143
ENCODING 143
SWIDTH 3 0
DWIDTH 21 0
BBX 0 0 0 0
BITMAP
ENDCHAR

STARTCHAR char145
ENCODING 145
SWIDTH 21 0
DWIDTH 5 0
BBX 5 7 0 8
BITMAP
10
60
C0
C0
F0
F0
70
ENDCHAR

STARTCHAR char146
ENCODING 146
SWIDTH 21 0
DWIDTH 5 0
BBX 4 7 1 8
BITMAP
60
F0
70
30
20
60
80
ENDCHAR

STARTCHAR char147
ENCODING 147
SWIDTH 43 0
DWIDTH 10 0
BBX 7 7 1 8
BITMAP
22
44
88
88
CE
EE
66
ENDCHAR

STARTCHAR char148
ENCODING 148
SWIDTH 43 0
DWIDTH 10 0
BBX 7 7 1 8
BITMAP
4C
EE
E6
22
22
44
88
ENDCHAR

STARTCHAR char149
ENCODING 149
SWIDTH 30 0
DWIDTH 7 0
BBX 5 5 1 5
BITMAP
70
F8
F8
F8
70
ENDCHAR

STARTCHAR char150
ENCODING 150
SWIDTH 43 0
DWIDTH 10 0
BBX 8 2 1 5
BITMAP
FF
FF
ENDCHAR

STARTCHAR char151
ENCODING 151
SWIDTH 16 0
DWIDTH 14 0
BBX 15 2 -1 5
BITMAP
FFFE
FFFE
ENDCHAR

STARTCHAR char152
ENCODING 152
SWIDTH 0 0
DWIDTH 0 0
BBX 8 3 -4 11
BITMAP
7B
7E
40
ENDCHAR

STARTCHAR char153
ENCODING 153
SWIDTH 38 0
DWIDTH 19 0
BBX 17 8 0 6
BITMAP
FFC180
96C300
10E300
10A500
10B700
109700
109B00
39CB80
ENDCHAR

STARTCHAR char154
ENCODING 154
SWIDTH 3 0
DWIDTH 21 0
BBX 0 0 0 0
BITMAP
ENDCHAR

STARTCHAR char155
ENCODING 155
SWIDTH 30 0
DWIDTH 7 0
BBX 3 7 2 2
BITMAP
80
C0
60
20
E0
80
80
ENDCHAR

STARTCHAR char156
ENCODING 156
SWIDTH 20 0
DWIDTH 15 0
BBX 14 10 0 0
BITMAP
3EF0
6398
6398
E39C
E3FC
E380
E380
6384
63F8
3EF0
ENDCHAR

STARTCHAR char157
ENCODING 157
SWIDTH 3 0
DWIDTH 21 0
BBX 0 0 0 0
BITMAP
ENDCHAR

STARTCHAR char159
ENCODING 159
SWIDTH 16 0
DWIDTH 14 0
BBX 13 19 -1 0
BITMAP
1840
1C60
1840
0000
FE38
7810
3C10
1C10
1E20
0F20
0F40
07C0
0780
0780
0380
0380
0380
0380
1FE0
ENDCHAR

STARTCHAR char160
ENCODING 160
SWIDTH 25 0
DWIDTH 6 0
BBX 0 0 0 0
BITMAP
ENDCHAR

STARTCHAR char161
ENCODING 161
SWIDTH 25 0
DWIDTH 6 0
BBX 3 15 1 0
BITMAP
C0
E0
C0
00
00
40
40
40
40
40
E0
E0
E0
E0
E0
ENDCHAR

STARTCHAR char162
ENCODING 162
SWIDTH 38 0
DWIDTH 9 0
BBX 8 15 0 -2
BITMAP
08
08
08
3E
6F
6F
EA
E8
E8
E8
F9
7F
3C
08
08
ENDCHAR

STARTCHAR char163
ENCODING 163
SWIDTH 3 0
DWIDTH 11 0
BBX 11 15 -1 0
BITMAP
07C0
0CE0
1CE0
1CC0
1C00
1E00
0E00
3F80
0E00
0E00
0600
0620
7E20
CFE0
73C0
ENDCHAR

STARTCHAR char164
ENCODING 164
SWIDTH 0 0
DWIDTH 0 0
BBX 5 2 -1 16
BITMAP
70
C0
ENDCHAR

STARTCHAR char165
ENCODING 165
SWIDTH 0 0
DWIDTH 0 0
BBX 8 2 -4 16
BITMAP
66
3C
ENDCHAR

STARTCHAR char166
ENCODING 166
SWIDTH 3 0
DWIDTH 21 0
BBX 0 0 0 0
BITMAP
ENDCHAR

STARTCHAR char167
ENCODING 167
SWIDTH 43 0
DWIDTH 10 0
BBX 8 18 1 -3
BITMAP
3C
6E
EE
E4
70
38
5C
CE
C7
C7
E2
76
3C
1C
4E
E6
EC
78
ENDCHAR

STARTCHAR char168
ENCODING 168
SWIDTH 0 0
DWIDTH 0 0
BBX 8 3 -4 11
BITMAP
E7
E7
E7
ENDCHAR

STARTCHAR char169
ENCODING 169
SWIDTH 29 0
DWIDTH 17 0
BBX 15 14 0 0
BITMAP
07C0
0830
1008
23E4
4624
C426
CC06
CC06
CC06
4406
67C4
2008
1810
07E0
ENDCHAR

STARTCHAR char170
ENCODING 170
SWIDTH 0 0
DWIDTH 0 0
BBX 8 3 -4 16
BITMAP
E7
E7
E7
ENDCHAR

STARTCHAR char171
ENCODING 171
SWIDTH 3 0
DWIDTH 11 0
BBX 8 10 1 1
BITMAP
11
33
22
66
CC
CC
66
22
11
11
ENDCHAR

STARTCHAR char172
ENCODING 172
SWIDTH 20 0
DWIDTH 15 0
BBX 14 6 0 0
BITMAP
FFFC
000C
000C
000C
000C
000C
ENDCHAR

STARTCHAR char173
ENCODING 173
SWIDTH 3 0
DWIDTH 21 0
BBX 0 0 0 0
BITMAP
ENDCHAR

STARTCHAR char174
ENCODING 174
SWIDTH 29 0
DWIDTH 17 0
BBX 15 14 0 0
BITMAP
03C0
0C30
1008
27C4
4664
C666
C446
C786
C6C6
46E6
6F74
2008
1818
07E0
ENDCHAR

STARTCHAR char175
ENCODING 175
SWIDTH 3 0
DWIDTH 21 0
BBX 0 0 0 0
BITMAP
ENDCHAR

STARTCHAR char176
ENCODING 176
SWIDTH 25 0
DWIDTH 6 0
BBX 7 6 -1 8
BITMAP
38
44
C6
C6
44
38
ENDCHAR

STARTCHAR char177
ENCODING 177
SWIDTH 8 0
DWIDTH 12 0
BBX 11 13 0 0
BITMAP
0C00
0C00
0C00
0C00
0C00
FFE0
0C00
0C00
0C00
0C00
0C00
0000
FFE0
ENDCHAR

STARTCHAR char178
ENCODING 178
SWIDTH 3 0
DWIDTH 21 0
BBX 0 0 0 0
BITMAP
ENDCHAR

STARTCHAR char179
ENCODING 179
SWIDTH 3 0
DWIDTH 21 0
BBX 0 0 0 0
BITMAP
ENDCHAR

STARTCHAR char180
ENCODING 180
SWIDTH 0 0
DWIDTH 0 0
BBX 4 3 -1 11
BITMAP
60
C0
80
ENDCHAR

STARTCHAR char181
ENCODING 181
SWIDTH 3 0
DWIDTH 21 0
BBX 0 0 0 0
BITMAP
ENDCHAR

STARTCHAR char182
ENCODING 182
SWIDTH 20 0
DWIDTH 15 0
BBX 9 18 2 -3
BITMAP
3F80
7980
F980
F980
F980
F980
F980
7980
1980
1980
1980
1980
1980
1980
1980
1980
1980
1980
ENDCHAR

STARTCHAR char183
ENCODING 183
SWIDTH 17 0
DWIDTH 4 0
BBX 3 3 0 5
BITMAP
E0
E0
E0
ENDCHAR

STARTCHAR char184
ENCODING 184
SWIDTH 0 0
DWIDTH 0 0
BBX 5 4 -2 -4
BITMAP
30
78
38
F0
ENDCHAR

STARTCHAR char186
ENCODING 186
SWIDTH 0 0
DWIDTH 0 0
BBX 8 3 -4 16
BITMAP
39
7E
8C
ENDCHAR

STARTCHAR char187
ENCODING 187
SWIDTH 3 0
DWIDTH 11 0
BBX 8 10 1 1
BITMAP
88
88
C4
66
77
77
66
C4
88
88
ENDCHAR

STARTCHAR char188
ENCODING 188
SWIDTH 3 0
DWIDTH 21 0
BBX 0 0 0 0
BITMAP
ENDCHAR

STARTCHAR char189
ENCODING 189
SWIDTH 3 0
DWIDTH 21 0
BBX 0 0 0 0
BITMAP
ENDCHAR

STARTCHAR char191
ENCODING 191
SWIDTH 43 0
DWIDTH 10 0
BBX 8 15 1 0
BITMAP
1C
1C
1C
00
00
18
18
10
30
60
E0
E7
E7
63
3C
ENDCHAR

STARTCHAR char192
ENCODING 192
SWIDTH 16 0
DWIDTH 14 0
BBX 14 18 -1 0
BITMAP
0F80
0180
0000
0100
0300
0300
0780
0780
07C0
09C0
09E0
10E0
1FF0
3070
2070
2078
6078
F0FC
ENDCHAR

STARTCHAR char193
ENCODING 193
SWIDTH 16 0
DWIDTH 14 0
BBX 14 18 -1 0
BITMAP
03C0
0300
0000
0100
0300
0300
0780
0780
07C0
09C0
09E0
10E0
1FF0
3070
2070
2078
6078
F0FC
ENDCHAR

STARTCHAR char194
ENCODING 194
SWIDTH 16 0
DWIDTH 14 0
BBX 14 18 -1 0
BITMAP
0FC0
1CC0
0000
0100
0300
0300
0780
0780
07C0
09C0
09E0
10E0
1FF0
3070
2070
2078
6078
F0FC
ENDCHAR

STARTCHAR char195
ENCODING 195
SWIDTH 16 0
DWIDTH 14 0
BBX 14 19 -1 0
BITMAP
0F20
1FE0
11C0
0000
0100
0300
0300
0780
0780
07C0
09C0
09E0
10E0
1FF0
3070
2070
2078
6078
F0FC
ENDCHAR

STARTCHAR char196
ENCODING 196
SWIDTH 16 0
DWIDTH 14 0
BBX 14 19 -1 0
BITMAP
1CE0
1CE0
0CE0
0000
0100
0300
0300
0380
0780
07C0
09C0
09C0
08E0
1FE0
10F0
10F0
20F0
6078
F0FC
ENDCHAR

STARTCHAR char197
ENCODING 197
SWIDTH 16 0
DWIDTH 14 0
BBX 14 20 -1 0
BITMAP
0380
06C0
06C0
0380
0000
0100
0300
0300
0380
0780
07C0
09C0
09C0
08E0
1FE0
20F0
20F0
2070
6078
F0FC
ENDCHAR

STARTCHAR char198
ENCODING 198
SWIDTH 42 0
DWIDTH 20 0
BBX 20 15 -1 0
BITMAP
007FC0
00B8C0
00B840
013840
033980
023980
043B80
07FF80
087B80
087980
107980
307820
207820
607860
F1FFE0
ENDCHAR

STARTCHAR char199
ENCODING 199
SWIDTH 16 0
DWIDTH 14 0
BBX 12 19 1 -4
BITMAP
0F90
1C70
3030
7010
6010
E000
E000
E000
E000
E000
E000
7010
7030
3860
1F80
0600
0F00
0700
1E00
ENDCHAR

STARTCHAR char200
ENCODING 200
SWIDTH 16 0
DWIDTH 14 0
BBX 12 18 0 0
BITMAP
0E00
0300
0000
FFE0
3860
3820
3820
3880
3880
3900
3F00
3900
3880
3890
3810
3830
3870
FFF0
ENDCHAR

STARTCHAR char201
ENCODING 201
SWIDTH 16 0
DWIDTH 14 0
BBX 12 18 0 0
BITMAP
0380
0600
0000
FFE0
3860
3820
3820
3880
3880
3900
3F00
3900
3880
3890
3810
3830
3870
FFF0
ENDCHAR

STARTCHAR char202
ENCODING 202
SWIDTH 16 0
DWIDTH 14 0
BBX 12 18 0 0
BITMAP
0F80
1980
0000
FFE0
3860
3820
3820
3880
3880
3900
3F00
3900
3880
3890
3810
3830
3870
FFF0
ENDCHAR

STARTCHAR char203
ENCODING 203
SWIDTH 16 0
DWIDTH 14 0
BBX 12 19 0 0
BITMAP
11C0
39C0
11C0
0000
FFE0
3860
3820
3820
3900
3900
3900
3F00
3900
3900
3910
3810
3830
3870
FFF0
ENDCHAR

STARTCHAR char204
ENCODING 204
SWIDTH 34 0
DWIDTH 8 0
BBX 7 18 -1 0
BITMAP
78
18
00
FE
38
38
38
38
38
38
38
38
38
38
38
38
38
FE
ENDCHAR

STARTCHAR char205
ENCODING 205
SWIDTH 34 0
DWIDTH 8 0
BBX 7 18 0 0
BITMAP
1C
18
00
FE
38
38
38
38
38
38
38
38
38
38
38
38
38
FE
ENDCHAR

STARTCHAR char206
ENCODING 206
SWIDTH 34 0
DWIDTH 8 0
BBX 7 18 0 0
BITMAP
7C
CE
00
FE
38
38
38
38
38
38
38
38
38
38
38
38
38
FE
ENDCHAR

STARTCHAR char207
ENCODING 207
SWIDTH 34 0
DWIDTH 8 0
BBX 9 19 -1 0
BITMAP
6300
E380
6300
0000
7F00
1C00
1C00
1C00
1C00
1C00
1C00
1C00
1C00
1C00
1C00
1C00
1C00
1C00
7F00
ENDCHAR

STARTCHAR char208
ENCODING 208
SWIDTH 3 0
DWIDTH 21 0
BBX 0 0 0 0
BITMAP
ENDCHAR

STARTCHAR char209
ENCODING 209
SWIDTH 25 0
DWIDTH 16 0
BBX 14 19 0 0
BITMAP
0620
0FC0
1380
0000
F83C
7818
7C18
7E18
6E18
6718
6398
6398
61D8
60F8
60F8
6078
6038
6038
F018
ENDCHAR

STARTCHAR char210
ENCODING 210
SWIDTH 29 0
DWIDTH 17 0
BBX 14 18 1 0
BITMAP
0F00
0380
0000
0FC0
1860
3030
7038
601C
E01C
E01C
E01C
E01C
E01C
E038
6038
3030
3860
0FC0
ENDCHAR

STARTCHAR char211
ENCODING 211
SWIDTH 29 0
DWIDTH 17 0
BBX 14 18 1 0
BITMAP
03C0
0300
0000
0FC0
1860
3030
7038
601C
E01C
E01C
E01C
E01C
E01C
E038
6038
3030
3860
0FC0
ENDCHAR

STARTCHAR char212
ENCODING 212
SWIDTH 29 0
DWIDTH 17 0
BBX 14 18 1 0
BITMAP
0F80
0CC0
0000
0FC0
1860
3030
7038
601C
E01C
E01C
E01C
E01C
E01C
E038
6038
3030
3860
0FC0
ENDCHAR

STARTCHAR char213
ENCODING 213
SWIDTH 29 0
DWIDTH 17 0
BBX 14 19 1 0
BITMAP
0C20
0FC0
1380
0000
0FC0
1860
3030
7038
601C
E01C
E01C
E01C
E01C
E01C
E038
6038
3030
3860
0FC0
ENDCHAR

STARTCHAR char214
ENCODING 214
SWIDTH 29 0
DWIDTH 17 0
BBX 15 19 0 0
BITMAP
0E70
0E70
0E70
0000
07E0
1C38
381C
781C
781E
701E
F00E
F01E
F01E
701E
701E
781C
381C
1C38
0FE0
ENDCHAR

STARTCHAR char215
ENCODING 215
SWIDTH 3 0
DWIDTH 21 0
BBX 0 0 0 0
BITMAP
ENDCHAR

STARTCHAR char216
ENCODING 216
SWIDTH 29 0
DWIDTH 17 0
BBX 14 15 1 0
BITMAP
0FC8
1870
3030
6078
6078
E09C
E11C
E21C
E41C
E81C
F038
6038
7030
7860
4FC0
ENDCHAR

STARTCHAR char217
ENCODING 217
SWIDTH 20 0
DWIDTH 15 0
BBX 14 18 0 0
BITMAP
0F00
0380
0000
FC1C
7818
7018
7018
7018
7018
7018
7018
7018
7018
7018
7018
3010
3C20
0FC0
ENDCHAR

STARTCHAR char218
ENCODING 218
SWIDTH 20 0
DWIDTH 15 0
BBX 14 18 0 0
BITMAP
03C0
0300
0000
FC1C
7818
7018
7018
7018
7018
7018
7018
7018
7018
7018
7018
3010
3C20
0FC0
ENDCHAR

STARTCHAR char219
ENCODING 219
SWIDTH 20 0
DWIDTH 15 0
BBX 14 18 0 0
BITMAP
0F80
1CC0
0000
FC1C
7818
7018
7018
7018
7018
7018
7018
7018
7018
7018
7018
3010
3C20
0FC0
ENDCHAR

STARTCHAR char220
ENCODING 220
SWIDTH 20 0
DWIDTH 15 0
BBX 14 19 0 0
BITMAP
0470
0E70
0470
0000
FC1C
3808
3808
7808
7808
7808
7808
7808
7808
7808
7808
3808
3810
1C30
0FC0
ENDCHAR

STARTCHAR char221
ENCODING 221
SWIDTH 3 0
DWIDTH 21 0
BBX 0 0 0 0
BITMAP
ENDCHAR

STARTCHAR char222
ENCODING 222
SWIDTH 3 0
DWIDTH 21 0
BBX 0 0 0 0
BITMAP
ENDCHAR

STARTCHAR char223
ENCODING 223
SWIDTH 3 0
DWIDTH 11 0
BBX 9 15 0 0
BITMAP
1E00
3300
7300
7300
7300
7600
7600
7300
7380
7380
7380
7380
7380
7300
F700
ENDCHAR

STARTCHAR char224
ENCODING 224
SWIDTH 43 0
DWIDTH 10 0
BBX 10 14 0 0
BITMAP
3000
1800
0800
0000
3E00
6700
E700
E700
0F00
3700
6700
E700
FF40
F380
ENDCHAR

STARTCHAR char225
ENCODING 225
SWIDTH 43 0
DWIDTH 10 0
BBX 10 14 0 0
BITMAP
0E00
0C00
1800
0000
3E00
6700
E700
E700
0F00
3700
6700
E700
FF40
F380
ENDCHAR

STARTCHAR char226
ENCODING 226
SWIDTH 43 0
DWIDTH 10 0
BBX 10 14 0 0
BITMAP
1C00
3C00
6200
0000
3E00
6700
E700
E700
0F00
3700
6700
E700
FF40
F380
ENDCHAR

STARTCHAR char227
ENCODING 227
SWIDTH 43 0
DWIDTH 10 0
BBX 10 14 0 0
BITMAP
3900
7F00
4000
0000
3E00
6700
E700
E700
0F00
3700
6700
E700
FF40
F380
ENDCHAR

STARTCHAR char228
ENCODING 228
SWIDTH 43 0
DWIDTH 10 0
BBX 9 14 0 0
BITMAP
6700
F700
6700
0000
3E00
4600
E700
E700
0F00
3700
6700
E700
FF80
7780
ENDCHAR

STARTCHAR char229
ENCODING 229
SWIDTH 43 0
DWIDTH 10 0
BBX 9 15 0 0
BITMAP
1C00
3400
2400
1C00
0000
3E00
4700
E700
E700
0F00
3700
6700
E700
FF80
7780
ENDCHAR

STARTCHAR char230
ENCODING 230
SWIDTH 16 0
DWIDTH 14 0
BBX 13 10 0 0
BITMAP
3FE0
6730
E730
4730
1FF8
7700
E700
E710
FFE0
61C0
ENDCHAR

STARTCHAR char231
ENCODING 231
SWIDTH 38 0
DWIDTH 9 0
BBX 9 14 0 -4
BITMAP
3E00
7300
6300
E100
E000
E000
F000
F080
7F00
3E00
0C00
1E00
0E00
7C00
ENDCHAR

STARTCHAR char232
ENCODING 232
SWIDTH 43 0
DWIDTH 10 0
BBX 9 14 0 0
BITMAP
3800
1800
0800
0000
3E00
7300
6300
E380
FF80
E000
E000
F080
7B00
3C00
ENDCHAR

STARTCHAR char233
ENCODING 233
SWIDTH 43 0
DWIDTH 10 0
BBX 9 14 0 0
BITMAP
0E00
0C00
1800
0000
3E00
7300
6300
E380
FF80
E000
E000
F080
7B00
3C00
ENDCHAR

STARTCHAR char234
ENCODING 234
SWIDTH 43 0
DWIDTH 10 0
BBX 9 14 0 0
BITMAP
1C00
3E00
6200
0000
3E00
7300
6300
E380
FF80
E000
E000
F080
7B00
3C00
ENDCHAR

STARTCHAR char235
ENCODING 235
SWIDTH 43 0
DWIDTH 10 0
BBX 9 14 0 0
BITMAP
E700
E700
E700
0000
3E00
7300
6300
E380
FF80
E000
E000
F080
7B00
3C00
ENDCHAR

STARTCHAR char236
ENCODING 236
SWIDTH 25 0
DWIDTH 6 0
BBX 6 14 -1 0
BITMAP
70
30
10
00
78
38
38
38
38
38
38
38
38
7C
ENDCHAR

STARTCHAR char237
ENCODING 237
SWIDTH 25 0
DWIDTH 6 0
BBX 6 14 0 0
BITMAP
38
30
60
00
F0
70
70
70
70
70
70
70
70
F8
ENDCHAR

STARTCHAR char238
ENCODING 238
SWIDTH 25 0
DWIDTH 6 0
BBX 7 14 -1 0
BITMAP
38
7C
44
00
78
38
38
38
38
38
38
38
38
7C
ENDCHAR

STARTCHAR char239
ENCODING 239
SWIDTH 25 0
DWIDTH 6 0
BBX 7 14 -1 0
BITMAP
CE
CE
CE
00
78
38
38
38
38
38
38
38
38
7C
ENDCHAR

STARTCHAR char241
ENCODING 241
SWIDTH 3 0
DWIDTH 11 0
BBX 10 14 0 0
BITMAP
3F00
6E00
2000
0000
F700
7B80
7380
7380
7380
7380
7380
7380
7380
FFC0
ENDCHAR

STARTCHAR char242
ENCODING 242
SWIDTH 43 0
DWIDTH 10 0
BBX 9 14 0 0
BITMAP
3800
1800
0800
0000
3E00
7300
E380
E380
E380
E380
E380
6300
7300
3E00
ENDCHAR

STARTCHAR char243
ENCODING 243
SWIDTH 43 0
DWIDTH 10 0
BBX 9 14 0 0
BITMAP
0E00
0C00
1800
0000
3E00
7300
E380
E380
E380
E380
E380
6300
7300
3E00
ENDCHAR

STARTCHAR char244
ENCODING 244
SWIDTH 43 0
DWIDTH 10 0
BBX 9 14 0 0
BITMAP
3C00
3600
6200
0000
3E00
7300
E380
E380
E380
E380
E380
6300
7300
3E00
ENDCHAR

STARTCHAR char245
ENCODING 245
SWIDTH 43 0
DWIDTH 10 0
BBX 9 14 0 0
BITMAP
3900
7F00
4000
0000
3E00
7300
E380
E380
E380
E380
E380
6300
7300
3E00
ENDCHAR

STARTCHAR char246
ENCODING 246
SWIDTH 43 0
DWIDTH 10 0
BBX 9 14 0 0
BITMAP
6300
F380
6300
0000
3E00
7300
E380
E380
E380
E380
E380
6300
7300
3E00
ENDCHAR

STARTCHAR char247
ENCODING 247
SWIDTH 8 0
DWIDTH 12 0
BBX 11 7 0 2
BITMAP
0E00
0E00
0000
FFE0
0000
0E00
0E00
ENDCHAR

STARTCHAR char248
ENCODING 248
SWIDTH 43 0
DWIDTH 10 0
BBX 9 10 0 0
BITMAP
3E80
7300
E380
E780
EB80
FB80
F380
6300
6300
BE00
ENDCHAR

STARTCHAR char249
ENCODING 249
SWIDTH 3 0
DWIDTH 11 0
BBX 10 14 0 0
BITMAP
3800
1800
0800
0000
F780
7380
7380
7380
7380
7380
7380
7380
7780
3BC0
ENDCHAR

STARTCHAR char250
ENCODING 250
SWIDTH 3 0
DWIDTH 11 0
BBX 10 14 0 0
BITMAP
0E00
0C00
0800
0000
F780
7380
7380
7380
7380
7380
7380
7380
7780
3BC0
ENDCHAR

STARTCHAR char251
ENCODING 251
SWIDTH 3 0
DWIDTH 11 0
BBX 10 14 0 0
BITMAP
1C00
1600
2300
0000
F780
7380
7380
7380
7380
7380
7380
7380
7780
3BC0
ENDCHAR

STARTCHAR char252
ENCODING 252
SWIDTH 3 0
DWIDTH 11 0
BBX 10 14 0 0
BITMAP
7300
7380
7300
0000
F780
7380
7380
7380
7380
7380
7380
7380
7780
3BC0
ENDCHAR

STARTCHAR char255
ENCODING 255
SWIDTH 43 0
DWIDTH 10 0
BBX 9 17 0 -3
BITMAP
E700
E700
E700
0000
FB80
7100
7100
7A00
3A00
3E00
1C00
1C00
0800
0800
C800
D000
E000
ENDCHAR
ENDFONT
